<svg xmlns="http://www.w3.org/2000/svg" xmlns:xlink="http://www.w3.org/1999/xlink" width="19" height="19" viewBox="0 0 19 19">
  <defs>
    <clipPath id="clip-path">
      <rect id="長方形_24525" data-name="長方形 24525" width="19" height="19" transform="translate(-1355 2666)" fill="none"/>
    </clipPath>
  </defs>
  <g id="マスクグループ_71" data-name="マスクグループ 71" transform="translate(1355 -2666)" clip-path="url(#clip-path)">
    <g id="メールの無料アイコンその8" transform="translate(-1354 2669)">
      <path id="パス_12723" data-name="パス 12723" d="M16.956,56.913a2.266,2.266,0,0,0-.487-1,1.994,1.994,0,0,0-.16-.173,2.385,2.385,0,0,0-1.667-.673H2.358a2.388,2.388,0,0,0-1.667.673,2.037,2.037,0,0,0-.16.173,2.239,2.239,0,0,0-.485,1A2.167,2.167,0,0,0,0,57.36v8.405a2.281,2.281,0,0,0,.691,1.624c.053.051.105.1.162.145a2.394,2.394,0,0,0,1.5.528H14.642a2.379,2.379,0,0,0,1.5-.53,2.016,2.016,0,0,0,.162-.143,2.3,2.3,0,0,0,.5-.712v0a2.223,2.223,0,0,0,.193-.91V57.36A2.3,2.3,0,0,0,16.956,56.913ZM1.544,56.566a1.154,1.154,0,0,1,.814-.329H14.642a1.15,1.15,0,0,1,.814.329,1.121,1.121,0,0,1,.1.118L9.121,62.151a.964.964,0,0,1-1.242,0L1.443,56.682A.854.854,0,0,1,1.544,56.566Zm-.338,9.2V57.9l4.659,3.96L1.209,65.814A.327.327,0,0,1,1.206,65.765Zm13.436,1.122H2.358a1.159,1.159,0,0,1-.57-.147L6.7,62.568l.459.389a2.082,2.082,0,0,0,2.683,0l.458-.389,4.911,4.172A1.161,1.161,0,0,1,14.642,66.886Zm1.152-1.122a.342.342,0,0,1,0,.049L11.135,61.86l4.659-3.96Z" transform="translate(0 -55.062)" fill="#fff"/>
    </g>
  </g>
</svg>
