<svg id="グループ_35110" data-name="グループ 35110" xmlns="http://www.w3.org/2000/svg" width="18.5" height="18.5" viewBox="0 0 18.5 18.5">
  <g id="電話の受話器のアイコン素材" transform="translate(1.677)">
    <path id="パス_302" data-name="パス 302" d="M61.07.783c-1.361.824-1.628,3.4-1.114,5.5a18.317,18.317,0,0,0,2.685,5.9,20.319,20.319,0,0,0,4.668,4.695c1.844,1.295,4.472,2.118,5.833,1.293a6.622,6.622,0,0,0,1.757-1.76l-.731-1.053-2.01-2.9c-.149-.215-1.086-.019-1.562.233a4.341,4.341,0,0,0-1.233,1.251c-.44.238-.809,0-1.579-.33A9.061,9.061,0,0,1,64.923,10.8a8.45,8.45,0,0,1-1.587-3.587c-.01-.792-.091-1.2.321-1.482a4.764,4.764,0,0,0,1.726-.541c.44-.3,1.015-1.022.865-1.237l-2.01-2.9L63.507,0A7.234,7.234,0,0,0,61.07.783Z" transform="translate(-59.712 0.001)" fill="#23b574"/>
  </g>
  <rect id="長方形_2366" data-name="長方形 2366" width="18.5" height="18.459" transform="translate(0 0.041)" fill="none"/>
</svg>
